<svg width="168" height="168" viewBox="0 0 168 168" fill="none" xmlns="http://www.w3.org/2000/svg">
<path d="M83.6411 0V19.7557C96.0481 19.7557 108.176 23.2316 118.492 29.7439C128.808 36.2563 136.849 45.5125 141.597 56.3421C146.344 67.1719 147.587 79.0884 145.166 90.5852C142.745 102.082 136.772 112.642 127.999 120.931L142.784 134.9C154.481 123.849 162.447 109.768 165.675 94.4392C168.902 79.1104 167.246 63.2215 160.916 48.7819C154.585 34.3425 143.865 22.0008 130.109 13.3177C116.355 4.63455 100.184 2.04884e-06 83.6411 0Z" fill="#4E4E4E"/>
<path d="M142.784 134.9L127.999 120.931C117.274 131.066 103.024 137.185 87.8901 138.154C72.756 139.124 57.7629 134.878 45.6881 126.203L33.032 141.937C49.1342 153.499 69.1259 159.158 89.3047 157.864C109.484 156.571 128.483 148.412 142.784 134.9Z" fill="white"/>
<path d="M151.701 124.521L134.371 113.467C125.884 125.346 113.128 133.915 98.4663 137.589C83.8043 141.263 68.2299 139.791 54.628 133.448L45.3737 151.17C63.5115 159.625 84.2776 161.584 103.827 156.684C123.376 151.784 140.384 140.358 151.701 124.521Z" fill="#4E4E4E"/>
<path d="M20.9103 79.0227C20.9103 71.2396 22.5329 63.5328 25.6854 56.3421C28.838 49.1515 33.4586 42.618 39.2837 37.1145C45.1089 31.6111 52.0243 27.2456 59.6351 24.2671C67.2459 21.2887 75.4032 19.7557 83.6411 19.7557V4.06219e-09C66.1318 -0.000167682 49.064 5.19117 34.8434 14.8423C20.6228 24.4935 9.96656 38.1177 4.37681 53.7945C-1.21295 69.4714 -1.45437 86.4103 3.68657 102.224C8.8275 118.037 19.0916 131.927 33.032 141.937L45.6881 126.203C37.9821 120.681 31.7346 113.547 27.4358 105.362C23.1369 97.1759 20.9033 88.1606 20.9103 79.0227Z" fill="white"/>
<path d="M56.5655 57.5648V61.3573H55.6961C52.0143 61.4218 49.0825 62.4525 46.9007 64.4493C44.7189 66.4464 43.4575 69.2565 43.1165 72.8799C45.0768 70.7542 47.7529 69.6914 51.145 69.6914C54.3837 69.6914 56.966 70.7704 58.8922 72.9283C60.8353 75.0863 61.8069 77.8723 61.8069 81.2864C61.8069 84.9099 60.7586 87.8087 58.662 89.9828C56.5825 92.1569 53.7871 93.2439 50.2756 93.2439C46.7132 93.2439 43.824 91.9556 41.608 89.3789C39.3922 86.786 38.2841 83.4525 38.2841 79.378V77.663C38.2841 71.189 39.7416 66.245 42.6564 62.8309C45.5882 59.4007 49.9432 57.6453 55.7217 57.5648H56.5655ZM50.3523 73.4115C48.7331 73.4115 47.2416 73.8704 45.878 74.7883C44.5143 75.7063 43.5683 76.8577 43.0399 78.2428V79.8853C43.0399 82.7841 43.7302 85.1192 45.1109 86.8907C46.4916 88.6622 48.2132 89.5479 50.2756 89.5479C52.4064 89.5479 54.0768 88.8072 55.2871 87.3256C56.5143 85.844 57.128 83.9033 57.128 81.5038C57.128 79.0882 56.5058 77.1396 55.2614 75.6579C54.0341 74.1603 52.3978 73.4115 50.3523 73.4115ZM90.7501 77.7596C90.7501 82.9934 89.8041 86.8827 87.912 89.4271C86.02 91.9717 83.0626 93.2439 79.0399 93.2439C75.0683 93.2439 72.128 92.0038 70.2189 89.5238C68.3098 87.0276 67.3211 83.3075 67.2529 78.3634V72.3969C67.2529 67.2274 68.1989 63.3865 70.091 60.8742C71.9831 58.362 74.9489 57.1058 78.9887 57.1058C82.9944 57.1058 85.9432 58.3217 87.8353 60.7534C89.7274 63.1691 90.6989 66.9053 90.7501 71.962V77.7596ZM86.02 71.648C86.02 67.8636 85.4575 65.1097 84.3325 63.3865C83.2075 61.6472 81.4262 60.7777 78.9887 60.7777C76.5683 60.7777 74.8041 61.6392 73.6961 63.3624C72.5882 65.0855 72.0171 67.7347 71.9831 71.3098V78.4601C71.9831 82.2607 72.5626 85.071 73.7217 86.8907C74.8978 88.6944 76.6705 89.5963 79.0399 89.5963C81.3751 89.5963 83.1052 88.7428 84.2302 87.0356C85.3722 85.3286 85.9689 82.6392 86.02 78.9674V71.648ZM96.4007 64.3528C96.4007 62.2431 97.108 60.5038 98.5228 59.135C99.9546 57.7661 101.787 57.0817 104.02 57.0817C106.287 57.0817 108.119 57.7742 109.517 59.1591C110.932 60.528 111.639 62.3075 111.639 64.4977V66.2128C111.639 68.3386 110.924 70.0779 109.491 71.4306C108.077 72.7673 106.27 73.4356 104.071 73.4356C101.855 73.4356 100.023 72.7673 98.574 71.4306C97.125 70.0779 96.4007 68.2822 96.4007 66.0437V64.3528ZM99.9291 66.2128C99.9291 67.4689 100.304 68.5077 101.054 69.329C101.804 70.1342 102.81 70.5368 104.071 70.5368C105.281 70.5368 106.253 70.1423 106.986 69.3532C107.736 68.564 108.111 67.4851 108.111 66.1161V64.3528C108.111 63.0967 107.744 62.0579 107.011 61.2366C106.279 60.4153 105.281 60.0047 104.02 60.0047C102.759 60.0047 101.761 60.4153 101.029 61.2366C100.296 62.0579 99.9291 63.1288 99.9291 64.4493V66.2128ZM114.528 84.1369C114.528 82.0272 115.236 80.296 116.651 78.9433C118.082 77.5744 119.915 76.89 122.148 76.89C124.381 76.89 126.213 77.5663 127.645 78.9191C129.076 80.2718 129.793 82.0675 129.793 84.306V86.0211C129.793 88.1307 129.076 89.87 127.645 91.2388C126.23 92.5916 124.415 93.268 122.199 93.268C119.983 93.268 118.151 92.5997 116.702 91.2631C115.253 89.9103 114.528 88.1147 114.528 85.8761V84.1369ZM118.057 86.0211C118.057 87.2933 118.432 88.3401 119.182 89.1614C119.932 89.9667 120.937 90.3693 122.199 90.3693C123.427 90.3693 124.406 89.9747 125.139 89.1855C125.872 88.3804 126.239 87.2933 126.239 85.9245V84.1369C126.239 82.8646 125.864 81.8259 125.114 81.0207C124.381 80.2155 123.392 79.8129 122.148 79.8129C120.937 79.8129 119.949 80.2155 119.182 81.0207C118.432 81.8098 118.057 82.8808 118.057 84.2336V86.0211ZM105.145 90.1036L102.46 88.5092L120.639 61.0191L123.324 62.6135L105.145 90.1036Z" fill="black"/>
</svg>
