<svg width="168" height="168" viewBox="0 0 168 168" fill="none" xmlns="http://www.w3.org/2000/svg">
<path d="M83.6411 0V18.9422C96.048 18.9422 108.176 22.275 118.492 28.5192C128.808 34.7634 136.849 43.6385 141.597 54.0222C146.344 64.406 147.587 75.8318 145.166 86.8552C142.745 97.8785 136.772 108.004 127.999 115.952L142.784 129.345C154.481 118.749 162.447 105.248 165.675 90.5505C168.902 75.8529 167.246 60.6183 160.916 46.7733C154.585 32.9284 143.864 21.0949 130.109 12.7693C116.355 4.44372 100.184 1.96447e-06 83.6411 0Z" fill="#4E4E4E"/>
<path d="M142.784 129.345L127.999 115.952C117.274 125.669 103.024 131.536 87.89 132.465C72.7559 133.395 57.7628 129.324 45.688 121.006L33.0319 136.093C49.1342 147.179 69.1258 152.604 89.3047 151.364C109.484 150.124 128.483 142.301 142.784 129.345Z" fill="#4E4E4E"/>
<path d="M20.9103 75.7688C20.9103 68.3062 22.5328 60.9167 25.6853 54.0222C28.8379 47.1277 33.4586 40.8631 39.2836 35.5863C45.1088 30.3095 52.0241 26.1237 59.635 23.2679C67.2458 20.4121 75.4031 18.9422 83.641 18.9422V3.89492e-09C66.1318 -0.000160777 49.0639 4.97742 34.8433 14.2312C20.6228 23.4849 9.9665 36.5481 4.37675 51.5795C-1.21302 66.6108 -1.45443 82.8523 3.68651 98.0145C8.82744 113.177 19.0915 126.495 33.0319 136.093L45.688 121.006C37.982 115.711 31.7347 108.872 27.4357 101.023C23.1369 93.1746 20.9033 84.5305 20.9103 75.7688Z" fill="white"/>
<path d="M108.056 148.376L102.173 130.199C87.617 134.067 72.0072 133.024 58.235 127.265C44.4627 121.506 33.4615 111.42 27.2691 98.8759L8.17691 106.615C16.4374 123.339 31.1077 136.785 49.4713 144.463C67.835 152.141 88.6479 153.531 108.056 148.376Z" fill="#4E4E4E"/>
<path d="M56.5654 55.1945V58.8308H55.696C52.0142 58.8927 49.0824 59.8809 46.9006 61.7955C44.7188 63.7103 43.4575 66.4048 43.1165 69.879C45.0767 67.8408 47.7529 66.8217 51.1449 66.8217C54.3836 66.8217 56.966 67.8563 58.8921 69.9253C60.8353 71.9945 61.8069 74.6658 61.8069 77.9393C61.8069 81.4136 60.7585 84.193 58.662 86.2776C56.5824 88.3622 53.7869 89.4045 50.2756 89.4045C46.7131 89.4045 43.8239 88.1692 41.608 85.6986C39.3921 83.2125 38.2841 80.0162 38.2841 76.1095V74.4651C38.2841 68.2577 39.7415 63.5172 42.6563 60.2437C45.5881 56.9548 49.9432 55.2717 55.7217 55.1945H56.5654ZM50.3523 70.3886C48.733 70.3886 47.2415 70.8287 45.8779 71.7088C44.5142 72.5889 43.5682 73.693 43.0399 75.021V76.5959C43.0399 79.3753 43.7302 81.6143 45.1108 83.3129C46.4915 85.0114 48.2131 85.8606 50.2756 85.8606C52.4063 85.8606 54.0767 85.1504 55.2869 83.7298C56.5142 82.3092 57.1279 80.4485 57.1279 78.1478C57.1279 75.8316 56.5057 73.9633 55.2614 72.5426C54.0341 71.1066 52.3978 70.3886 50.3523 70.3886ZM69.5796 72.0331L71.4717 55.2176H90.5454V59.1783H75.4858L74.3608 68.3735C76.1847 67.4007 78.2557 66.9143 80.5739 66.9143C83.966 66.9143 86.6591 67.9335 88.6535 69.9717C90.6478 71.9945 91.6449 74.7353 91.6449 78.1941C91.6449 81.6684 90.6051 84.4092 88.5256 86.4165C86.463 88.4084 83.5739 89.4045 79.858 89.4045C76.5682 89.4045 73.8836 88.5783 71.804 86.9261C69.7245 85.2739 68.5399 82.9886 68.25 80.0702H72.7245C73.0142 82.0004 73.7727 83.4595 75 84.4478C76.2273 85.4206 77.8466 85.907 79.858 85.907C82.0569 85.907 83.7784 85.2276 85.0227 83.8688C86.2841 82.5099 86.9148 80.6339 86.9148 78.2405C86.9148 75.986 86.233 74.1794 84.8693 72.8206C83.5227 71.4463 81.7245 70.7592 79.4745 70.7592C77.412 70.7592 75.7926 71.1684 74.6165 71.9868L73.3636 72.9132L69.5796 72.0331ZM96.4006 61.7029C96.4006 59.6801 97.108 58.0125 98.5227 56.7C99.9545 55.3875 101.787 54.7312 104.02 54.7312C106.287 54.7312 108.119 55.3952 109.517 56.7231C110.932 58.0357 111.639 59.7419 111.639 61.8419V63.4864C111.639 65.5246 110.924 67.1923 109.491 68.4893C108.077 69.771 106.27 70.4118 104.071 70.4118C101.855 70.4118 100.023 69.771 98.5739 68.4893C97.125 67.1923 96.4006 65.4706 96.4006 63.3242V61.7029ZM99.929 63.4864C99.929 64.6908 100.304 65.6868 101.054 66.4742C101.804 67.2463 102.81 67.6323 104.071 67.6323C105.281 67.6323 106.253 67.2541 106.986 66.4975C107.736 65.7408 108.111 64.7063 108.111 63.3937V61.7029C108.111 60.4986 107.744 59.5025 107.011 58.7151C106.278 57.9276 105.281 57.5339 104.02 57.5339C102.759 57.5339 101.761 57.9276 101.028 58.7151C100.295 59.5025 99.929 60.5294 99.929 61.7955V63.4864ZM114.528 80.6724C114.528 78.6496 115.236 76.9897 116.651 75.6927C118.082 74.3801 119.915 73.7239 122.148 73.7239C124.381 73.7239 126.213 74.3724 127.645 75.6695C129.076 76.9665 129.793 78.6882 129.793 80.8346V82.479C129.793 84.5018 129.076 86.1695 127.645 87.4819C126.23 88.779 124.415 89.4276 122.199 89.4276C119.983 89.4276 118.151 88.7868 116.702 87.5052C115.252 86.2081 114.528 84.4864 114.528 82.3401V80.6724ZM118.057 82.479C118.057 83.6989 118.432 84.7025 119.182 85.4901C119.932 86.2622 120.937 86.6482 122.199 86.6482C123.427 86.6482 124.406 86.2699 125.139 85.5132C125.872 84.7412 126.239 83.6989 126.239 82.3864V80.6724C126.239 79.4525 125.864 78.4566 125.114 77.6846C124.381 76.9125 123.392 76.5265 122.148 76.5265C120.937 76.5265 119.949 76.9125 119.182 77.6846C118.432 78.4412 118.057 79.468 118.057 80.7651V82.479ZM105.145 86.3934L102.46 84.8647L120.639 58.5066L123.324 60.0353L105.145 86.3934Z" fill="black"/>
</svg>
