<svg width="168" height="168" viewBox="0 0 168 168" fill="none" xmlns="http://www.w3.org/2000/svg">
<path d="M89.7393 0V19.1677C101.249 19.1677 112.501 22.5402 122.071 28.8587C131.641 35.1772 139.101 44.158 143.505 54.6653C147.91 65.1727 149.063 76.7346 146.817 87.8892C144.571 99.0437 139.029 109.29 130.89 117.332L144.607 130.885C155.459 120.163 162.849 106.501 165.843 91.6285C168.837 76.7559 167.301 61.3399 161.428 47.3301C155.555 33.3204 145.609 21.346 132.849 12.9213C120.089 4.49662 105.086 1.98786e-06 89.7393 0Z" fill="#4E4E4E"/>
<path d="M144.607 130.885L130.89 117.332C120.941 127.165 107.721 133.102 93.6812 134.042C79.6411 134.983 65.7318 130.864 54.53 122.447L42.7887 137.713C57.727 148.931 76.2734 154.421 94.9936 153.166C113.714 151.911 131.34 143.995 144.607 130.885Z" fill="#4E4E4E"/>
<path d="M31.5433 76.6708C31.5433 69.1194 33.0486 61.6419 35.9733 54.6653C38.8979 47.6887 43.1845 41.3496 48.5885 36.0099C53.9926 30.6703 60.408 26.4347 67.4687 23.5449C74.5294 20.6551 82.0969 19.1677 89.7393 19.1677V3.94129e-09C73.4957 -0.000162691 57.6618 5.03667 44.4692 14.4006C31.2765 23.7645 21.3907 36.9832 16.205 52.1935C11.0193 67.4038 10.7953 83.8386 15.5647 99.1813C20.334 114.524 29.856 128.001 42.7887 137.713L54.53 122.447C47.381 117.089 41.5852 110.168 37.5971 102.226C33.6089 94.2838 31.5368 85.5368 31.5433 76.6708Z" fill="white"/>
<path d="M81.3704 153.547L83.5285 134.499C69.5434 132.953 56.5991 126.452 47.0935 116.199C37.588 105.946 32.1654 92.6358 31.8304 78.7349L12.4316 79.1959C12.8822 97.7304 20.1147 115.476 32.7897 129.146C45.4647 142.816 62.7236 151.485 81.3704 153.547Z" fill="#4E4E4E"/>
<path d="M69.697 58.3125L55.3939 90H50.7923L65.048 59.4375H46.3567V55.875H69.697V58.3125ZM76.6944 72.8906L78.4496 55.875H96.1447V59.8828H82.1736L81.13 69.1875C82.8221 68.2031 84.7433 67.7109 86.8939 67.7109C90.0408 67.7109 92.5393 68.7422 94.3894 70.8047C96.2396 72.8516 97.1646 75.625 97.1646 79.125C97.1646 82.6406 96.2 85.4141 94.2709 87.4453C92.3574 89.4609 89.6771 90.4688 86.2297 90.4688C83.1778 90.4688 80.6873 89.6328 78.758 87.9609C76.8288 86.2891 75.7297 83.9766 75.4609 81.0234H79.612C79.8808 82.9766 80.5844 84.4531 81.723 85.4531C82.8615 86.4375 84.3638 86.9297 86.2297 86.9297C88.2697 86.9297 89.8668 86.2422 91.0212 84.8672C92.1914 83.4922 92.7765 81.5938 92.7765 79.1719C92.7765 76.8906 92.1439 75.0625 90.8789 73.6875C89.6296 72.2969 87.9614 71.6016 85.874 71.6016C83.9606 71.6016 82.4583 72.0156 81.3672 72.8438L80.2049 73.7812L76.6944 72.8906ZM101.576 62.4375C101.576 60.3906 102.233 58.7031 103.546 57.375C104.873 56.0469 106.574 55.3828 108.645 55.3828C110.748 55.3828 112.448 56.0547 113.745 57.3984C115.058 58.7266 115.714 60.4531 115.714 62.5781V64.2422C115.714 66.3047 115.05 67.9922 113.721 69.3047C112.408 70.6016 110.732 71.25 108.693 71.25C106.636 71.25 104.937 70.6016 103.592 69.3047C102.248 67.9922 101.576 66.25 101.576 64.0781V62.4375ZM104.85 64.2422C104.85 65.4609 105.197 66.4688 105.894 67.2656C106.589 68.0469 107.522 68.4375 108.693 68.4375C109.815 68.4375 110.717 68.0547 111.396 67.2891C112.092 66.5234 112.441 65.4766 112.441 64.1484V62.4375C112.441 61.2188 112.101 60.2109 111.42 59.4141C110.74 58.6172 109.815 58.2188 108.645 58.2188C107.474 58.2188 106.549 58.6172 105.869 59.4141C105.19 60.2109 104.85 61.25 104.85 62.5312V64.2422ZM118.393 81.6328C118.393 79.5859 119.05 77.9062 120.363 76.5938C121.691 75.2656 123.391 74.6016 125.463 74.6016C127.534 74.6016 129.233 75.2578 130.562 76.5703C131.89 77.8828 132.555 79.625 132.555 81.7969V83.4609C132.555 85.5078 131.89 87.1953 130.562 88.5234C129.25 89.8359 127.566 90.4922 125.51 90.4922C123.454 90.4922 121.754 89.8438 120.41 88.5469C119.066 87.2344 118.393 85.4922 118.393 83.3203V81.6328ZM121.667 83.4609C121.667 84.6953 122.016 85.7109 122.711 86.5078C123.407 87.2891 124.339 87.6797 125.51 87.6797C126.649 87.6797 127.558 87.2969 128.238 86.5312C128.918 85.75 129.258 84.6953 129.258 83.3672V81.6328C129.258 80.3984 128.91 79.3906 128.214 78.6094C127.534 77.8281 126.616 77.4375 125.463 77.4375C124.339 77.4375 123.422 77.8281 122.711 78.6094C122.016 79.375 121.667 80.4141 121.667 81.7266V83.4609ZM109.689 87.4219L107.198 85.875L124.063 59.2031L126.554 60.75L109.689 87.4219Z" fill="black"/>
</svg>
