<svg width="168" height="168" viewBox="0 0 168 168" fill="none" xmlns="http://www.w3.org/2000/svg">
<path d="M91.0219 0V19.7557C102.395 19.7557 113.513 23.2316 122.969 29.7439C132.425 36.2563 139.796 45.5125 144.148 56.3421C148.5 67.1719 149.639 79.0884 147.42 90.5852C145.201 102.082 139.725 112.642 131.683 120.931L145.236 134.9C155.959 123.849 163.261 109.768 166.22 94.4392C169.178 79.1104 167.66 63.2215 161.857 48.7819C156.054 34.3425 146.226 22.0008 133.618 13.3177C121.01 4.63455 106.186 2.04884e-06 91.0219 0Z" fill="#4E4E4E"/>
<path d="M145.237 134.9L131.683 120.931C121.852 131.066 108.79 137.185 94.9169 138.154C81.044 139.124 67.3003 134.878 56.2318 126.203L44.6303 141.937C59.3908 153.499 77.7164 159.158 96.2137 157.864C114.711 156.571 132.127 148.412 145.237 134.9Z" fill="#4E4E4E"/>
<path d="M33.5189 79.0227C33.5189 71.2396 35.0062 63.5328 37.896 56.3421C40.7858 49.1515 45.0215 42.618 50.3611 37.1145C55.7008 31.6111 62.0399 27.2456 69.0165 24.2671C75.9931 21.2887 83.4706 19.7557 91.022 19.7557V4.06219e-09C74.9718 -0.000167682 59.3263 5.19117 46.2908 14.8423C33.2552 24.4935 23.487 38.1177 18.3631 53.7945C13.2391 69.4714 13.0178 86.4103 17.7304 102.224C22.4429 118.037 31.8516 131.927 44.6303 141.937L56.2318 126.203C49.1679 120.681 43.4411 113.547 39.5005 105.362C35.5598 97.1759 33.5125 88.1606 33.5189 79.0227Z" fill="#FEFEFE"/>
<path d="M23.6754 118.505L40.301 108.673C33.3801 96.2437 31.0647 81.6496 33.7837 67.5951C36.5027 53.5404 44.0719 40.9778 55.0891 32.2343L43.3879 16.5795C28.7006 28.2407 18.6106 44.9922 14.9863 63.7322C11.362 82.472 14.4489 101.931 23.6754 118.505Z" fill="#4E4E4E"/>
<path d="M71.6925 155.502L76.1725 136.294C62.6525 132.946 50.7681 124.661 42.7208 112.973C34.6734 101.286 31.0087 86.9887 32.4053 72.73L13.3285 70.7496C11.4701 89.762 16.359 108.825 27.0897 124.407C37.8204 139.989 53.6661 151.036 71.6925 155.502Z" fill="#4E4E4E"/>
<path d="M69.8824 66.7684C69.8824 68.5238 69.4293 70.0859 68.523 71.4547C67.6324 72.8236 66.4214 73.8945 64.8902 74.6676C66.6714 75.4566 68.0777 76.6081 69.1089 78.122C70.1558 79.6357 70.6793 81.3509 70.6793 83.2673C70.6793 86.311 69.6793 88.7347 67.6793 90.5384C65.6949 92.3421 63.0777 93.2439 59.8277 93.2439C56.5464 93.2439 53.9136 92.3421 51.9293 90.5384C49.9605 88.7185 48.9761 86.2949 48.9761 83.2673C48.9761 81.3669 49.4761 79.6518 50.4761 78.122C51.4918 76.592 52.8902 75.4325 54.6714 74.6434C53.1558 73.8704 51.9605 72.7995 51.0855 71.4306C50.2105 70.0618 49.773 68.5077 49.773 66.7684C49.773 63.8052 50.6949 61.454 52.5386 59.7147C54.3824 57.9755 56.8121 57.1058 59.8277 57.1058C62.8277 57.1058 65.2496 57.9755 67.0933 59.7147C68.9527 61.454 69.8824 63.8052 69.8824 66.7684ZM66.3433 83.1706C66.3433 81.2059 65.7339 79.6036 64.5152 78.3634C63.3121 77.1234 61.7339 76.5035 59.7808 76.5035C57.8277 76.5035 56.2574 77.1154 55.0699 78.3393C53.898 79.5633 53.3121 81.1737 53.3121 83.1706C53.3121 85.1675 53.8824 86.7377 55.023 87.8811C56.1793 89.0245 57.7808 89.5963 59.8277 89.5963C61.8589 89.5963 63.4527 89.0245 64.6089 87.8811C65.7652 86.7216 66.3433 85.1515 66.3433 83.1706ZM59.8277 60.7777C58.1246 60.7777 56.7418 61.3252 55.6793 62.4203C54.6324 63.4993 54.1089 64.9728 54.1089 66.8409C54.1089 68.6284 54.6246 70.0779 55.6558 71.189C56.7027 72.2841 58.0933 72.8317 59.8277 72.8317C61.5621 72.8317 62.9449 72.2841 63.9761 71.189C65.023 70.0779 65.5464 68.6284 65.5464 66.8409C65.5464 65.0533 65.0074 63.5958 63.9293 62.4686C62.8511 61.3412 61.4839 60.7777 59.8277 60.7777ZM78.1324 75.1265L79.8668 57.589H97.3511V61.7197H83.5464L82.5152 71.3098C84.1871 70.2952 86.0855 69.7879 88.2105 69.7879C91.3199 69.7879 93.7886 70.8509 95.6168 72.9766C97.4449 75.0863 98.3589 77.9448 98.3589 81.5522C98.3589 85.1756 97.4058 88.0342 95.4996 90.1277C93.6089 92.2051 90.9605 93.2439 87.5543 93.2439C84.5386 93.2439 82.0777 92.3823 80.1714 90.6591C78.2652 88.936 77.1793 86.5526 76.9136 83.5088H81.0152C81.2808 85.5219 81.9761 87.0437 83.1011 88.0744C84.2261 89.089 85.7105 89.5963 87.5543 89.5963C89.5699 89.5963 91.148 88.8877 92.2886 87.4705C93.4449 86.0533 94.023 84.0967 94.023 81.6005C94.023 79.2492 93.398 77.365 92.148 75.9479C90.9136 74.5146 89.2652 73.798 87.2027 73.798C85.3121 73.798 83.8277 74.2247 82.7496 75.0783L81.6011 76.0444L78.1324 75.1265ZM102.718 64.3528C102.718 62.2431 103.367 60.5038 104.664 59.135C105.976 57.7661 107.656 57.0817 109.703 57.0817C111.781 57.0817 113.461 57.7742 114.742 59.1591C116.039 60.528 116.687 62.3075 116.687 64.4977V66.2128C116.687 68.3386 116.031 70.0779 114.718 71.4306C113.421 72.7673 111.765 73.4356 109.75 73.4356C107.718 73.4356 106.039 72.7673 104.711 71.4306C103.382 70.0779 102.718 68.2822 102.718 66.0437V64.3528ZM105.953 66.2128C105.953 67.4689 106.296 68.5077 106.984 69.329C107.671 70.1342 108.593 70.5368 109.75 70.5368C110.859 70.5368 111.75 70.1423 112.421 69.3532C113.109 68.564 113.453 67.4851 113.453 66.1161V64.3528C113.453 63.0967 113.117 62.0579 112.445 61.2366C111.773 60.4153 110.859 60.0047 109.703 60.0047C108.546 60.0047 107.632 60.4153 106.961 61.2366C106.289 62.0579 105.953 63.1288 105.953 64.4493V66.2128ZM119.336 84.1369C119.336 82.0272 119.984 80.296 121.281 78.9433C122.593 77.5744 124.273 76.89 126.32 76.89C128.367 76.89 130.046 77.5663 131.359 78.9191C132.671 80.2718 133.328 82.0675 133.328 84.306V86.0211C133.328 88.1307 132.671 89.87 131.359 91.2388C130.062 92.5916 128.398 93.268 126.367 93.268C124.336 93.268 122.656 92.5997 121.328 91.2631C120 89.9103 119.336 88.1147 119.336 85.8761V84.1369ZM122.57 86.0211C122.57 87.2933 122.914 88.3401 123.601 89.1614C124.289 89.9667 125.211 90.3693 126.367 90.3693C127.492 90.3693 128.39 89.9747 129.062 89.1855C129.734 88.3804 130.07 87.2933 130.07 85.9245V84.1369C130.07 82.8646 129.726 81.8259 129.039 81.0207C128.367 80.2155 127.461 79.8129 126.32 79.8129C125.211 79.8129 124.304 80.2155 123.601 81.0207C122.914 81.8098 122.57 82.8808 122.57 84.2336V86.0211ZM110.734 90.1036L108.273 88.5092L124.937 61.0191L127.398 62.6135L110.734 90.1036Z" fill="black"/>
</svg>
